<svg version="1.1" id="Layer_1" xmlns="http://www.w3.org/2000/svg" xmlns:xlink="http://www.w3.org/1999/xlink" x="0px" y="0px"
	 width="100%" viewBox="0 0 449 360" enable-background="new 0 0 449 360" xml:space="preserve">
<path fill="#FEFFFE" opacity="1.000000" stroke="none" 
	d="
M271.000000,361.000000 
	C180.694427,361.000000 90.888847,361.000000 1.041636,361.000000 
	C1.041636,241.064850 1.041636,121.129677 1.041636,1.097255 
	C150.555527,1.097255 300.111145,1.097255 449.833374,1.097255 
	C449.833374,120.999817 449.833374,240.999893 449.833374,361.000000 
	C390.463104,361.000000 330.981537,361.000000 271.000000,361.000000 
M129.925690,341.077118 
	C129.925690,341.077118 129.831360,341.093994 129.985580,341.844147 
	C134.563187,345.167664 139.496338,344.542145 144.113190,340.328644 
	C145.894547,338.702942 148.062119,337.500458 150.733002,336.050720 
	C151.840530,335.423462 152.948059,334.796234 154.649078,334.039062 
	C155.035919,333.692017 155.422745,333.344940 156.178619,332.379578 
	C156.712952,332.007965 157.455353,331.754242 157.744507,331.243744 
	C158.818161,329.348267 159.742584,327.368256 160.723053,325.420013 
	C158.538040,324.903992 156.370193,324.110229 154.161728,323.973724 
	C152.785538,323.888641 151.347946,324.796661 149.479507,324.512390 
	C149.425385,319.911682 149.371262,315.310944 150.002106,310.508789 
	C152.014755,310.313324 154.027420,310.117859 156.918533,310.067932 
	C159.202972,310.067932 161.487411,310.067932 164.251419,310.067932 
	C164.251419,302.436920 164.183350,295.233887 164.269592,288.032715 
	C164.365570,280.018250 164.602036,272.005493 164.942215,264.839600 
	C166.272614,275.715790 168.676666,286.593964 168.656876,297.467682 
	C168.633057,310.543030 166.465591,323.608185 165.427673,336.693695 
	C165.237869,339.086609 166.011734,341.555939 166.243927,344.728149 
	C167.759903,349.256226 172.324051,351.536407 176.789688,349.250061 
	C182.756897,346.194916 188.388733,342.484741 194.607239,339.004639 
	C194.918289,338.881958 195.086853,338.653931 195.750336,338.088562 
	C196.364700,337.438538 196.979065,336.788513 198.106796,335.816193 
	C198.201553,334.074432 199.006531,331.367584 198.236526,330.800873 
	C196.829559,329.765472 194.470551,329.671844 192.546143,329.791016 
	C190.644669,329.908783 188.789581,330.775360 186.481262,330.582977 
	C186.344101,323.741028 186.206940,316.899078 186.997406,310.090790 
	C199.357300,310.000153 211.717194,309.909515 224.960373,310.026825 
	C227.521667,310.026825 230.082962,310.026825 232.889084,310.026825 
	C232.889084,303.804810 232.901535,298.338318 232.886963,292.871918 
	C232.814346,265.629211 232.734634,238.386520 232.918503,211.131302 
	C232.918503,211.131302 233.175842,211.085434 233.656448,211.039291 
	C233.656448,211.039291 234.139847,211.065506 234.139847,211.065506 
	C234.139847,211.065506 234.623932,211.062378 234.769638,211.980026 
	C234.827148,244.659653 234.884659,277.339264 234.656754,310.104492 
	C234.765442,310.089081 234.874146,310.073639 235.666000,310.163422 
	C236.121552,310.219116 236.577087,310.274841 237.703079,310.797791 
	C255.181076,310.867828 272.659058,310.944733 290.137115,310.979156 
	C290.746552,310.980347 291.356842,310.558533 292.466125,310.157166 
	C292.629852,310.091095 292.793610,310.024994 293.843231,310.144379 
	C296.241394,310.109070 298.639526,310.073761 301.041870,310.002991 
	C301.041870,310.002991 301.060089,310.037872 301.204559,310.389709 
	C301.493439,310.257721 301.782318,310.125732 302.604706,309.971802 
	C302.782318,309.960297 302.959930,309.948761 303.549408,309.941681 
	C303.549408,309.941681 303.957123,309.883362 304.887024,310.051758 
	C323.619934,309.997070 342.352875,309.942383 361.970398,310.049469 
	C364.411316,310.049469 366.852234,310.049469 369.729828,310.049469 
	C369.729828,256.057007 369.729828,202.566727 369.937042,148.404633 
	C369.977844,147.937698 370.018646,147.470749 370.573883,147.013229 
	C370.914185,147.047592 371.254456,147.081955 371.735657,148.026199 
	C371.735657,201.924744 371.735657,255.823288 371.735657,309.958679 
	C391.750427,309.958679 410.881775,309.958679 430.911316,310.118927 
	C433.174194,310.118927 435.437103,310.118927 438.114502,310.118927 
	C438.114502,307.690674 438.114532,305.892883 438.114532,304.095123 
	C438.114532,208.728485 438.115356,113.361832 438.107147,17.995193 
	C438.106995,16.334538 437.997498,14.673891 437.909851,12.479630 
	C437.596069,12.393250 437.282288,12.306871 436.109650,12.121738 
	C434.097351,12.160044 432.085022,12.198349 429.141113,12.063946 
	C410.241364,12.063946 391.341583,12.063946 372.265289,12.063946 
	C372.058533,13.370608 371.825287,14.155646 371.825806,14.940536 
	C371.849792,53.000782 371.893921,91.061020 371.827728,129.744873 
	C371.180664,130.513580 370.533630,131.282303 369.832947,131.105011 
	C369.832947,109.266945 369.832947,87.428879 369.832947,65.124931 
	C366.887207,65.124931 364.459503,65.124931 361.097687,65.002571 
	C341.891846,65.002571 322.685974,65.002571 303.080627,65.002571 
	C303.080627,67.597839 303.080780,69.401520 303.080597,71.205193 
	C303.077698,100.796333 303.094177,130.387482 303.060822,159.978592 
	C303.049957,169.615936 302.909027,179.253159 302.403778,188.699463 
	C301.937714,188.278412 301.471619,187.857361 301.159180,186.441910 
	C301.159180,166.038971 301.159180,145.636047 301.159180,125.249626 
	C278.707855,125.249626 256.860748,125.249626 235.080719,125.249626 
	C235.080719,150.099167 235.080719,174.547653 234.816925,199.526001 
	C234.227127,200.029495 233.637314,200.532990 232.909882,200.100845 
	C232.909882,178.524216 232.909882,156.947586 232.909882,135.266464 
	C229.722870,135.266464 227.399918,135.266464 224.174133,135.120880 
	C221.137955,135.133209 218.101776,135.145554 214.659470,134.553726 
	C210.168427,125.804955 205.772446,117.004837 201.098846,108.354706 
	C200.255829,106.794388 198.271210,105.850883 196.731949,103.864555 
	C194.657150,102.915825 192.582336,101.967087 190.250351,100.293701 
	C188.291489,92.159096 182.341202,90.400742 175.052353,89.888908 
	C175.047440,86.295204 175.042526,82.701508 175.540024,78.448761 
	C176.883942,73.849014 176.726669,69.532227 173.026733,65.968719 
	C168.349884,61.464306 152.652802,61.756294 148.167496,66.508362 
	C147.057846,67.684006 146.708557,69.997047 145.461945,70.548172 
	C141.013992,72.514587 139.738647,76.183571 140.056229,80.314194 
	C140.805771,90.062721 145.234940,97.995522 153.048508,104.659348 
	C153.050552,105.096634 153.052612,105.533913 152.981201,106.731041 
	C152.304291,108.553627 151.627380,110.376221 150.223572,112.064621 
	C148.449265,113.028862 146.674957,113.993111 144.192429,115.063629 
	C139.447128,117.098526 134.701813,119.133415 129.386795,121.204369 
	C129.102539,121.447861 128.818268,121.691353 128.216202,121.858017 
	C128.216202,121.858017 127.988724,122.092842 127.483833,122.145950 
	C127.334023,122.431847 127.184219,122.717751 126.833206,123.148911 
	C126.833206,123.148911 126.902069,123.387329 126.257828,123.710007 
	C119.662346,131.407593 113.119583,139.151276 106.448547,146.782822 
	C103.243080,150.449799 103.590027,153.675400 106.461647,157.453934 
	C111.788544,164.463120 116.753006,171.747757 120.947647,178.920151 
	C113.388702,178.920151 105.829765,178.920151 98.044441,178.920151 
	C98.044441,197.234497 98.044441,214.653168 97.764824,232.530701 
	C97.195671,232.920135 96.626518,233.309570 95.972168,232.818985 
	C95.972168,226.281113 95.972168,219.743256 95.972168,213.217957 
	C92.517235,212.976608 89.764565,212.784317 86.109482,212.332825 
	C67.356468,212.332825 48.603455,212.332825 29.318218,212.332825 
	C29.318218,232.644363 29.318218,252.270981 28.934429,272.503998 
	C23.766550,275.736176 18.598669,278.968323 13.150723,282.375641 
	C14.094319,284.070801 14.941387,285.592529 16.047634,287.579865 
	C20.711206,284.984070 25.009188,282.591797 29.354513,281.110016 
	C29.354513,290.685211 29.354513,300.260376 29.354513,309.951172 
	C49.082443,309.951172 68.029831,309.951172 87.886795,310.120514 
	C90.470467,310.120514 93.054138,310.120514 95.871780,310.120514 
	C95.871780,286.883270 95.871780,264.330048 96.148270,241.321838 
	C96.732613,240.958160 97.316956,240.594482 97.924751,241.138672 
	C97.924751,263.968201 97.924751,286.797699 97.924751,310.011322 
	C108.817558,310.011322 118.911919,310.011322 129.167511,310.917908 
	C128.827209,320.286194 128.486893,329.654480 128.026855,339.704041 
	C128.654266,340.193207 129.281677,340.682343 129.925690,341.077118 
z"/>
<path fill="#FF9271" opacity="1.000000" stroke="none" 
	d="
M430.013123,309.958679 
	C410.881775,309.958679 391.750427,309.958679 371.735657,309.958679 
	C371.735657,255.823288 371.735657,201.924744 371.784760,147.208099 
	C371.807770,145.882614 371.781677,145.375198 371.814697,144.504211 
	C372.206635,143.205872 372.413086,142.200394 372.891083,141.346985 
	C380.365387,128.002838 387.833466,114.654869 395.393066,101.358986 
	C399.292603,94.500496 403.369232,87.742668 407.383087,80.909950 
	C412.705383,83.838524 417.405853,86.424942 422.487061,89.220871 
	C422.487061,75.315224 422.487061,62.310192 422.487061,48.397171 
	C410.319183,55.298534 398.888306,61.781891 387.490662,68.246391 
	C387.818207,68.922577 387.849426,69.137283 387.967133,69.207947 
	C390.671509,70.831520 393.385162,72.439613 396.097351,74.050186 
	C401.756927,77.411003 401.764832,77.415428 398.583954,82.940193 
	C397.588776,84.668678 396.512268,86.350388 395.517853,88.079292 
	C387.651031,101.756416 379.795105,115.439804 371.935822,129.121262 
	C371.893921,91.061020 371.849792,53.000782 371.825806,14.940536 
	C371.825287,14.155646 372.058533,13.370608 372.265289,12.063946 
	C391.341583,12.063946 410.241364,12.063946 429.585449,12.601128 
	C430.024231,112.078430 430.018677,211.018555 430.013123,309.958679 
z"/>
<path fill="#00A2E6" opacity="1.000000" stroke="none" 
	d="
M292.957367,309.958893 
	C292.793610,310.024994 292.629852,310.091095 291.762085,310.136292 
	C273.049561,310.187164 255.041092,310.258850 237.032639,310.330566 
	C236.577087,310.274841 236.121552,310.219116 235.332825,310.081787 
	C234.999649,310.000122 234.942169,310.018890 234.942169,310.018890 
	C234.884659,277.339264 234.827148,244.659653 234.804657,211.193695 
	C234.817444,209.950150 234.795181,209.492905 234.972000,208.755844 
	C243.273895,200.188034 251.378235,191.901505 259.478760,183.611267 
	C262.208954,180.817139 269.098663,179.291626 272.431549,180.919968 
	C278.669800,183.967819 284.852783,187.128891 291.185730,190.423889 
	C291.542236,190.813171 291.811951,190.921082 292.082336,190.944946 
	C292.042816,190.961243 292.055603,190.876709 292.180634,191.133926 
	C292.659760,191.466934 293.013855,191.542709 293.365356,191.565460 
	C293.362793,191.512421 293.467957,191.497589 293.317200,191.998291 
	C293.110992,231.332962 293.055511,270.166962 292.988647,309.240417 
	C292.977264,309.479858 292.957367,309.958893 292.957367,309.958893 
z"/>
<path fill="#FFE27B" opacity="1.000000" stroke="none" 
	d="
M302.827606,188.890427 
	C302.909027,179.253159 303.049957,169.615936 303.060822,159.978592 
	C303.094177,130.387482 303.077698,100.796333 303.080597,71.205193 
	C303.080780,69.401520 303.080627,67.597839 303.080627,65.002571 
	C322.685974,65.002571 341.891846,65.002571 361.385254,65.430611 
	C361.474182,67.813995 361.106049,69.769051 361.102570,71.724739 
	C361.057678,97.100685 361.064575,122.476723 361.015472,148.218979 
	C360.502289,149.644348 360.116241,150.750992 359.549194,151.755463 
	C351.149200,166.635651 342.677246,181.475464 334.333771,196.387177 
	C331.536407,201.386749 330.099396,201.958206 324.847717,199.428177 
	C317.516876,195.896530 310.168488,192.401260 302.827606,188.890427 
z"/>
<path fill="#FFE27B" opacity="1.000000" stroke="none" 
	d="
M361.085785,309.887726 
	C342.352875,309.942383 323.619934,309.997070 304.355591,309.806885 
	C303.703339,309.355347 303.535431,309.199463 303.243591,308.626038 
	C303.139496,285.387970 303.077850,262.618134 303.097565,239.848404 
	C303.109924,225.560303 303.244568,211.272308 303.682373,196.996460 
	C310.168213,199.912903 316.359955,202.693115 322.384552,205.797806 
	C324.165375,206.715530 325.869019,208.307693 326.912445,210.015717 
	C328.734375,212.998123 331.546722,214.006302 334.057129,212.596695 
	C336.167511,211.411682 337.661743,208.655258 338.763428,206.285248 
	C339.799835,204.055542 339.476379,201.164017 340.606689,199.013229 
	C344.066193,192.430298 347.901337,186.042618 351.659363,179.619370 
	C354.724396,174.380539 357.888489,169.199692 361.035461,164.461914 
	C361.070099,213.249710 361.077942,261.568726 361.085785,309.887726 
z"/>
<path fill="#5360AD" opacity="1.000000" stroke="none" 
	d="
M126.902069,123.387329 
	C126.902069,123.387329 126.833206,123.148911 127.132065,122.968887 
	C127.682968,122.609833 127.868896,122.377823 127.988724,122.092842 
	C127.988724,122.092842 128.216202,121.858017 128.650055,121.839584 
	C129.374771,121.603539 129.665634,121.385918 129.956512,121.168304 
	C134.701813,119.133415 139.447128,117.098526 144.862427,115.150398 
	C146.404755,115.990616 147.230255,116.807899 148.156693,117.487572 
	C156.872940,123.882095 162.292526,123.582275 170.760590,116.894180 
	C172.752274,115.321159 175.643539,114.887131 178.083099,113.953079 
	C178.045242,113.977043 178.006775,113.896118 178.194244,114.164932 
	C178.779053,114.607857 179.176361,114.781960 179.615234,114.847351 
	C179.656769,114.738640 179.886368,114.776855 180.027283,115.024101 
	C180.769379,115.209923 181.370560,115.148499 182.340973,115.049728 
	C184.833313,115.873077 186.956390,116.733772 188.988953,117.935043 
	C189.633484,120.014046 189.888702,122.339684 191.181259,123.395851 
	C199.755127,130.401749 208.551315,137.135574 217.471375,144.234390 
	C217.571106,149.120300 215.993042,152.716797 210.679199,154.050629 
	C200.213547,154.671722 192.189880,149.836029 184.256790,143.797470 
	C183.304001,145.729523 182.597519,146.994904 182.038849,148.322479 
	C178.718414,156.212570 178.325882,164.288986 180.313049,172.593735 
	C182.091156,180.024841 183.629990,187.513199 185.481415,195.317169 
	C186.532806,204.081955 187.514191,212.496338 188.102158,220.938110 
	C188.215332,222.562637 186.785080,224.294662 185.693588,226.015137 
	C176.669388,228.001984 168.065750,230.213516 159.346588,231.783340 
	C155.283630,232.514877 152.206360,230.915802 153.048721,225.689178 
	C153.389587,223.574127 153.104965,221.358292 153.104965,219.188309 
	C149.932877,229.931183 149.933136,229.929855 139.417618,227.922852 
	C139.095581,227.861404 138.755630,227.893799 138.289459,227.710266 
	C138.005692,227.268600 137.785446,227.083572 137.314804,226.578949 
	C137.108551,224.165344 137.081665,222.155838 137.131958,219.727280 
	C137.795380,214.105484 138.646927,208.914352 138.874908,203.695953 
	C139.027832,200.195740 138.296707,196.656876 138.013885,192.797363 
	C138.719131,191.358536 139.950195,190.245056 139.926544,189.158890 
	C139.807999,183.716217 139.360916,178.280685 139.180145,172.535400 
	C138.561478,163.453659 137.791977,154.679184 137.009338,145.510925 
	C135.807968,141.754593 134.882996,138.267395 133.364883,135.061020 
	C131.465408,131.049149 129.078552,127.268044 126.902069,123.387329 
z"/>
<path fill="#56294C" opacity="1.000000" stroke="none" 
	d="
M138.424042,227.882431 
	C138.755630,227.893799 139.095581,227.861404 139.417618,227.922852 
	C149.933136,229.929855 149.932877,229.931183 153.104965,219.188309 
	C153.104965,221.358292 153.389587,223.574127 153.048721,225.689178 
	C152.206360,230.915802 155.283630,232.514877 159.346588,231.783340 
	C168.065750,230.213516 176.669388,228.001984 185.758392,226.421936 
	C186.549423,230.564560 186.902405,234.338440 187.191956,238.513855 
	C187.403915,241.199310 187.679291,243.483231 187.847641,246.250244 
	C187.890656,252.031769 187.665344,257.373047 188.264099,262.620331 
	C189.798737,276.069183 189.354568,289.391357 186.854263,302.679443 
	C186.398407,305.102112 186.321564,307.596069 186.069763,310.057129 
	C186.206940,316.899078 186.344101,323.741028 186.720703,331.355682 
	C186.615799,334.719330 186.271484,337.310242 185.586517,339.977051 
	C183.704742,341.023041 182.151474,341.974487 180.624680,342.966675 
	C176.047745,345.940979 171.377197,347.485107 166.340744,343.989990 
	C166.011734,341.555939 165.237869,339.086609 165.427673,336.693695 
	C166.465591,323.608185 168.633057,310.543030 168.656876,297.467682 
	C168.676666,286.593964 166.272614,275.715790 164.951767,264.027985 
	C164.119461,258.980865 163.277603,254.745346 162.435745,250.509827 
	C161.995514,250.537048 161.555298,250.564270 161.115067,250.591492 
	C159.403717,260.387421 157.692383,270.183380 155.778900,280.310455 
	C154.907669,284.048340 154.275299,287.462769 153.561707,290.860138 
	C152.170883,297.481873 150.734619,304.094086 149.317139,310.710236 
	C149.371262,315.310944 149.425385,319.911682 149.723862,325.284119 
	C149.255295,329.005829 148.542389,331.955780 147.495880,334.975281 
	C141.952057,338.684937 136.604752,341.932343 129.831360,341.093994 
	C129.831360,341.093994 129.925690,341.077118 129.913834,340.800903 
	C129.316849,340.024048 128.731705,339.523407 128.146576,339.022766 
	C128.486893,329.654480 128.827209,320.286194 129.263657,310.109009 
	C132.381226,282.160889 135.402634,255.021652 138.424042,227.882431 
z"/>
<path fill="#F6F87B" opacity="1.000000" stroke="none" 
	d="
M187.954666,245.767166 
	C187.679291,243.483231 187.403915,241.199310 187.560577,238.557129 
	C191.708710,237.566101 196.612534,238.217972 198.931427,236.074020 
	C208.068954,227.625793 216.394226,218.299042 225.304657,209.101013 
	C227.802750,206.644638 230.017105,204.385529 232.426056,201.989975 
	C232.858627,201.601944 232.941040,201.306900 232.926804,200.948486 
	C232.985703,200.928589 233.047516,201.036484 233.047516,201.036484 
	C233.637314,200.532990 234.227127,200.029495 235.220825,199.129547 
	C236.404114,197.820923 237.183517,196.908737 238.268661,195.870789 
	C240.039078,194.115601 241.503738,192.486176 243.222290,190.752701 
	C243.919739,190.085922 244.363281,189.523209 245.092514,188.832886 
	C245.905228,188.072800 246.432266,187.440323 247.219635,186.716339 
	C247.786102,186.179642 248.092224,185.734467 248.329025,185.256287 
	C248.259689,185.223312 248.298660,185.371841 248.555298,185.280212 
	C248.999344,184.888031 249.186752,184.587463 249.306091,184.264465 
	C249.238022,184.242020 249.298706,184.371872 249.555328,184.280243 
	C249.999359,183.888062 250.186768,183.587494 250.308502,183.247223 
	C250.242844,183.207520 250.256042,183.360413 250.539749,183.246719 
	C251.044571,182.794754 251.265686,182.456482 251.769562,181.971375 
	C254.766266,178.353897 257.568604,174.947861 260.167023,171.392776 
	C262.364899,168.385696 266.877075,167.176651 269.267822,169.919220 
	C275.005432,176.501144 283.249390,178.427567 290.707153,182.544830 
	C294.310883,184.348175 297.658234,185.892242 301.005554,187.436310 
	C301.471619,187.857361 301.937714,188.278412 302.615692,188.794952 
	C310.168488,192.401260 317.516876,195.896530 324.847717,199.428177 
	C330.099396,201.958206 331.536407,201.386749 334.333771,196.387177 
	C342.677246,181.475464 351.149200,166.635651 359.549194,151.755463 
	C360.116241,150.750992 360.502289,149.644348 361.315002,148.089035 
	C364.400482,142.412231 367.143524,137.231628 369.886597,132.051025 
	C370.533630,131.282303 371.180664,130.513580 371.881775,129.433075 
	C379.795105,115.439804 387.651031,101.756416 395.517853,88.079292 
	C396.512268,86.350388 397.588776,84.668678 398.583954,82.940193 
	C401.764832,77.415428 401.756927,77.411003 396.097351,74.050186 
	C393.385162,72.439613 390.671509,70.831520 387.967133,69.207947 
	C387.849426,69.137283 387.818207,68.922577 387.490662,68.246391 
	C398.888306,61.781891 410.319183,55.298534 422.487061,48.397171 
	C422.487061,62.310192 422.487061,75.315224 422.487061,89.220871 
	C417.405853,86.424942 412.705383,83.838524 407.383087,80.909950 
	C403.369232,87.742668 399.292603,94.500496 395.393066,101.358986 
	C387.833466,114.654869 380.365387,128.002838 372.891083,141.346985 
	C372.413086,142.200394 372.206635,143.205872 371.518311,144.587387 
	C370.794952,145.690720 370.427185,146.347260 370.059448,147.003815 
	C370.018646,147.470749 369.977844,147.937698 369.513916,148.800415 
	C366.396759,154.128494 363.702728,159.060806 361.008698,163.993134 
	C357.888489,169.199692 354.724396,174.380539 351.659363,179.619370 
	C347.901337,186.042618 344.066193,192.430298 340.606689,199.013229 
	C339.476379,201.164017 339.799835,204.055542 338.763428,206.285248 
	C337.661743,208.655258 336.167511,211.411682 334.057129,212.596695 
	C331.546722,214.006302 328.734375,212.998123 326.912445,210.015717 
	C325.869019,208.307693 324.165375,206.715530 322.384552,205.797806 
	C316.359955,202.693115 310.168213,199.912903 303.524597,196.779984 
	C302.720917,196.353775 302.432953,196.156235 302.008179,195.735199 
	C301.569855,195.352341 301.268372,195.192978 300.759491,194.934601 
	C300.552094,194.835571 300.092621,194.822647 299.870972,194.562439 
	C297.588837,193.367340 295.528412,192.432465 293.467957,191.497589 
	C293.467957,191.497589 293.362793,191.512421 293.226227,191.332916 
	C292.744965,191.061188 292.400299,190.968948 292.055603,190.876709 
	C292.055603,190.876709 292.042816,190.961243 291.990234,190.726227 
	C291.690796,190.245300 291.397797,190.162521 291.058746,190.242844 
	C284.852783,187.128891 278.669800,183.967819 272.431549,180.919968 
	C269.098663,179.291626 262.208954,180.817139 259.478760,183.611267 
	C251.378235,191.901505 243.273895,200.188034 234.723969,208.867798 
	C233.909866,209.868195 233.542847,210.476807 233.175842,211.085434 
	C233.175842,211.085434 232.918503,211.131302 232.560791,211.342285 
	C229.451660,214.659454 226.700256,217.765640 223.648056,221.023651 
	C217.000610,227.488083 210.578781,233.728271 204.370605,240.174240 
	C203.124298,241.468246 202.919205,243.710510 201.825699,245.219666 
	C200.365158,247.235306 198.753067,250.045898 196.747131,250.503555 
	C194.795425,250.948837 192.219315,248.946930 190.011932,247.832291 
	C189.188522,247.416534 188.632584,246.471085 187.954666,245.767166 
z"/>
<path fill="#96FC89" opacity="1.000000" stroke="none" 
	d="
M225.020905,209.298309 
	C216.394226,218.299042 208.068954,227.625793 198.931427,236.074020 
	C196.612534,238.217972 191.708710,237.566101 187.624023,238.155609 
	C186.902405,234.338440 186.549423,230.564560 186.131653,226.383881 
	C186.785080,224.294662 188.215332,222.562637 188.102158,220.938110 
	C187.514191,212.496338 186.532806,204.081955 185.483337,194.849335 
	C185.214081,189.401062 185.050537,184.760254 185.108841,180.122238 
	C185.198303,173.005981 185.126801,165.865265 185.722198,158.785263 
	C186.156891,153.616104 189.004013,152.004150 194.036453,153.187271 
	C195.639771,153.564194 197.189072,154.197815 198.734573,154.788528 
	C202.983490,156.412521 207.116745,156.322952 211.132736,154.069321 
	C215.993042,152.716797 217.571106,149.120300 217.454742,143.839600 
	C216.516464,140.498169 215.791031,137.828033 215.065598,135.157883 
	C218.101776,135.145554 221.137955,135.133209 224.584549,135.641296 
	C225.003616,160.540588 225.012268,184.919449 225.020905,209.298309 
z"/>
<path fill="#FE92C2" opacity="1.000000" stroke="none" 
	d="
M138.289459,227.710266 
	C135.402634,255.021652 132.381226,282.160889 129.183044,309.655701 
	C118.911919,310.011322 108.817558,310.011322 97.924751,310.011322 
	C97.924751,286.797699 97.924751,263.968201 98.213715,240.482712 
	C104.490204,236.322311 110.592308,232.997330 116.435143,229.266312 
	C123.161972,224.970795 130.115784,224.432510 137.494156,226.983032 
	C137.785446,227.083572 138.005692,227.268600 138.289459,227.710266 
z"/>
<path fill="#03D3FE" opacity="1.000000" stroke="none" 
	d="
M86.977226,309.951172 
	C68.029831,309.951172 49.082443,309.951172 29.354513,309.951172 
	C29.354513,300.260376 29.354513,290.685211 29.634136,280.506622 
	C49.258286,268.685760 68.602814,257.468323 87.959442,246.701660 
	C87.977814,266.151428 88.013268,285.150482 87.945976,304.149200 
	C87.939125,306.084290 87.314941,308.017242 86.977226,309.951172 
z"/>
<path fill="#07D3FD" opacity="1.000000" stroke="none" 
	d="
M29.318218,271.897583 
	C29.318218,252.270981 29.318218,232.644363 29.318218,212.332825 
	C48.603455,212.332825 67.356468,212.332825 86.650429,212.829208 
	C87.465591,221.579575 87.739807,229.833557 87.821861,238.363281 
	C74.582756,246.276489 61.575050,253.982132 48.471889,261.521881 
	C42.180367,265.142151 35.708443,268.448853 29.318218,271.897583 
z"/>
<path fill="#97FE89" opacity="1.000000" stroke="none" 
	d="
M187.847641,246.250244 
	C188.632584,246.471085 189.188522,247.416534 190.011932,247.832291 
	C192.219315,248.946930 194.795425,250.948837 196.747131,250.503555 
	C198.753067,250.045898 200.365158,247.235306 201.825699,245.219666 
	C202.919205,243.710510 203.124298,241.468246 204.370605,240.174240 
	C210.578781,233.728271 217.000610,227.488083 223.698441,221.503464 
	C224.058777,251.160599 224.067932,280.489746 224.077087,309.818909 
	C211.717194,309.909515 199.357300,310.000153 186.533585,310.073975 
	C186.321564,307.596069 186.398407,305.102112 186.854263,302.679443 
	C189.354568,289.391357 189.798737,276.069183 188.264099,262.620331 
	C187.665344,257.373047 187.890656,252.031769 187.847641,246.250244 
z"/>
<path fill="#FD6C44" opacity="1.000000" stroke="none" 
	d="
M430.462219,310.038818 
	C430.018677,211.018555 430.024231,112.078430 430.051270,12.687483 
	C432.085022,12.198349 434.097351,12.160044 436.653503,12.354175 
	C437.403412,12.800375 437.650635,12.942584 437.939026,13.013241 
	C437.997498,14.673891 438.106995,16.334538 438.107147,17.995193 
	C438.115356,113.361832 438.114532,208.728485 438.114532,304.095123 
	C438.114532,305.892883 438.114502,307.690674 438.114502,310.118927 
	C435.437103,310.118927 433.174194,310.118927 430.462219,310.038818 
z"/>
<path fill="#FE92C2" opacity="1.000000" stroke="none" 
	d="
M137.961136,193.135315 
	C138.296707,196.656876 139.027832,200.195740 138.874908,203.695953 
	C138.646927,208.914352 137.795380,214.105484 136.754517,219.677216 
	C134.635117,218.879944 132.657776,217.984497 131.366653,216.494461 
	C128.059402,212.677734 123.372116,212.893372 120.785011,217.210236 
	C120.040237,218.452988 119.395271,220.045715 118.256264,220.714310 
	C111.592735,224.625793 104.796135,228.310562 98.044441,232.071854 
	C98.044441,214.653168 98.044441,197.234497 98.044441,178.920151 
	C105.829765,178.920151 113.388702,178.920151 121.708939,179.091675 
	C125.366928,183.095810 128.464645,186.796722 131.091660,190.806046 
	C132.929947,193.611603 134.983215,194.380417 137.961136,193.135315 
z"/>
<path fill="#F8B726" opacity="1.000000" stroke="none" 
	d="
M361.035461,164.461914 
	C363.702728,159.060806 366.396759,154.128494 369.410309,149.136322 
	C369.729828,202.566727 369.729828,256.057007 369.729828,310.049469 
	C366.852234,310.049469 364.411316,310.049469 361.528076,309.968597 
	C361.077942,261.568726 361.070099,213.249710 361.035461,164.461914 
z"/>
<path fill="#465592" opacity="1.000000" stroke="none" 
	d="
M138.013885,192.797363 
	C134.983215,194.380417 132.929947,193.611603 131.091660,190.806046 
	C128.464645,186.796722 125.366928,183.095810 122.169312,179.090454 
	C116.753006,171.747757 111.788544,164.463120 106.461647,157.453934 
	C103.590027,153.675400 103.243080,150.449799 106.448547,146.782822 
	C113.119583,139.151276 119.662346,131.407593 126.579948,123.548668 
	C129.078552,127.268044 131.465408,131.049149 133.364883,135.061020 
	C134.882996,138.267395 135.807968,141.754593 136.705826,145.376801 
	C134.647263,145.528091 132.379120,144.670425 131.205673,145.453400 
	C127.835236,147.702271 124.907722,150.614929 121.210938,153.775574 
	C127.378441,160.375290 133.203873,166.608978 139.029312,172.842651 
	C139.360916,178.280685 139.807999,183.716217 139.926544,189.158890 
	C139.950195,190.245056 138.719131,191.358536 138.013885,192.797363 
z"/>
<path fill="#8F4616" opacity="1.000000" stroke="none" 
	d="
M153.005478,104.004921 
	C145.234940,97.995522 140.805771,90.062721 140.056229,80.314194 
	C139.738647,76.183571 141.013992,72.514587 145.461945,70.548172 
	C146.708557,69.997047 147.057846,67.684006 148.167496,66.508362 
	C152.652802,61.756294 168.349884,61.464306 173.026733,65.968719 
	C176.726669,69.532227 176.883942,73.849014 175.016632,78.580978 
	C174.041183,77.998428 173.589127,77.283676 172.759857,75.972527 
	C172.142609,80.484993 171.638763,84.168472 170.972046,89.042603 
	C168.538879,85.346855 167.097519,83.157578 165.383987,80.554886 
	C161.927841,84.784630 162.766800,88.372620 164.115448,92.249054 
	C164.430435,92.613800 164.714935,92.727287 165.285004,92.961441 
	C165.842178,93.378532 166.113800,93.674957 166.156464,94.252960 
	C163.107407,99.720612 160.708054,105.480812 153.005478,104.004921 
z"/>
<path fill="#F4FD81" opacity="1.000000" stroke="none" 
	d="
M97.904633,232.301270 
	C104.796135,228.310562 111.592735,224.625793 118.256264,220.714310 
	C119.395271,220.045715 120.040237,218.452988 120.785011,217.210236 
	C123.372116,212.893372 128.059402,212.677734 131.366653,216.494461 
	C132.657776,217.984497 134.635117,218.879944 136.677338,220.096268 
	C137.081665,222.155838 137.108551,224.165344 137.314804,226.578949 
	C130.115784,224.432510 123.161972,224.970795 116.435143,229.266312 
	C110.592308,232.997330 104.490204,236.322311 98.201996,240.028778 
	C97.316956,240.594482 96.732613,240.958160 95.669891,241.629333 
	C92.776794,243.374847 90.362068,244.812851 87.947342,246.250854 
	C68.602814,257.468323 49.258286,268.685760 29.610464,280.051392 
	C25.009188,282.591797 20.711206,284.984070 16.047634,287.579865 
	C14.941387,285.592529 14.094319,284.070801 13.150723,282.375641 
	C18.598669,278.968323 23.766550,275.736176 29.126324,272.200806 
	C35.708443,268.448853 42.180367,265.142151 48.471889,261.521881 
	C61.575050,253.982132 74.582756,246.276489 88.167892,238.306091 
	C91.156517,236.548447 93.606941,235.123734 96.057373,233.699005 
	C96.626518,233.309570 97.195671,232.920135 97.904633,232.301270 
z"/>
<path fill="#5ADA57" opacity="1.000000" stroke="none" 
	d="
M224.518738,309.922852 
	C224.067932,280.489746 224.058777,251.160599 223.999237,221.351639 
	C226.700256,217.765640 229.451660,214.659454 232.430237,211.348541 
	C232.734634,238.386520 232.814346,265.629211 232.886963,292.871918 
	C232.901535,298.338318 232.889084,303.804810 232.889084,310.026825 
	C230.082962,310.026825 227.521667,310.026825 224.518738,309.922852 
z"/>
<path fill="#F8B727" opacity="1.000000" stroke="none" 
	d="
M369.859772,131.578018 
	C367.143524,137.231628 364.400482,142.412231 361.357910,147.722794 
	C361.064575,122.476723 361.057678,97.100685 361.102570,71.724739 
	C361.106049,69.769051 361.474182,67.813995 361.852295,65.491791 
	C364.459503,65.124931 366.887207,65.124931 369.832947,65.124931 
	C369.832947,87.428879 369.832947,109.266945 369.859772,131.578018 
z"/>
<path fill="#0595D2" opacity="1.000000" stroke="none" 
	d="
M301.082367,186.939117 
	C297.658234,185.892242 294.310883,184.348175 291.142059,182.415894 
	C291.879730,180.784698 292.917114,179.544937 292.925568,178.298203 
	C293.034973,162.133240 292.929962,145.966766 293.055603,129.802048 
	C293.080841,126.558289 291.680115,125.936378 288.843964,125.951584 
	C272.678711,126.038277 256.512329,126.055801 240.347488,125.938866 
	C237.221069,125.916252 235.908798,126.690041 235.930099,130.105606 
	C236.059082,150.770218 235.958359,171.436279 236.078049,192.100998 
	C236.085602,193.403107 237.306488,194.698196 237.962921,195.996552 
	C237.183517,196.908737 236.404114,197.820923 235.352722,198.864624 
	C235.080719,174.547653 235.080719,150.099167 235.080719,125.249626 
	C256.860748,125.249626 278.707855,125.249626 301.159180,125.249626 
	C301.159180,145.636047 301.159180,166.038971 301.082367,186.939117 
z"/>
<path fill="#55DA52" opacity="1.000000" stroke="none" 
	d="
M225.304657,209.101028 
	C225.012268,184.919449 225.003616,160.540588 225.035965,135.714096 
	C227.399918,135.266464 229.722870,135.266464 232.909882,135.266464 
	C232.909882,156.947586 232.909882,178.524216 232.978699,200.568665 
	C233.047516,201.036484 232.985703,200.928589 232.741013,201.089966 
	C232.279633,201.504135 232.191345,201.795837 232.231445,202.126434 
	C230.017105,204.385529 227.802750,206.644638 225.304657,209.101028 
z"/>
<path fill="#07ACE7" opacity="1.000000" stroke="none" 
	d="
M87.959442,246.701660 
	C90.362068,244.812851 92.776794,243.374847 95.531647,241.856842 
	C95.871780,264.330048 95.871780,286.883270 95.871780,310.120514 
	C93.054138,310.120514 90.470467,310.120514 87.432007,310.035828 
	C87.314941,308.017242 87.939125,306.084290 87.945976,304.149200 
	C88.013268,285.150482 87.977814,266.151428 87.959442,246.701660 
z"/>
<path fill="#475692" opacity="1.000000" stroke="none" 
	d="
M214.862534,134.855804 
	C215.791031,137.828033 216.516464,140.498169 217.258545,143.563110 
	C208.551315,137.135574 199.755127,130.401749 191.181259,123.395851 
	C189.888702,122.339684 189.633484,120.014046 189.278854,117.817352 
	C189.199402,115.835541 188.769211,114.302261 188.272415,112.790855 
	C187.594193,110.727493 186.865280,108.680786 186.158096,106.626938 
	C188.721359,105.843155 191.260681,104.960854 193.860886,104.329178 
	C194.767838,104.108833 195.825043,104.506950 196.813629,104.622620 
	C198.271210,105.850883 200.255829,106.794388 201.098846,108.354706 
	C205.772446,117.004837 210.168427,125.804955 214.862534,134.855804 
z"/>
<path fill="#F55F97" opacity="1.000000" stroke="none" 
	d="
M155.981033,279.979309 
	C157.692383,270.183380 159.403717,260.387421 161.115067,250.591492 
	C161.555298,250.564270 161.995514,250.537048 162.435745,250.509827 
	C163.277603,254.745346 164.119461,258.980865 164.869324,263.604187 
	C164.602036,272.005493 164.365570,280.018250 164.269592,288.032715 
	C164.183350,295.233887 164.251419,302.436920 164.251419,310.067932 
	C161.487411,310.067932 159.202972,310.067932 156.472351,309.533081 
	C156.011124,299.325287 155.996078,289.652283 155.981033,279.979309 
z"/>
<path fill="#F8F7F7" opacity="1.000000" stroke="none" 
	d="
M196.772797,104.243591 
	C195.825043,104.506950 194.767838,104.108833 193.860886,104.329178 
	C191.260681,104.960854 188.721359,105.843155 186.158096,106.626938 
	C186.865280,108.680786 187.594193,110.727493 188.272415,112.790855 
	C188.769211,114.302261 189.199402,115.835541 189.369385,117.476768 
	C186.956390,116.733772 184.833313,115.873077 182.005692,114.921509 
	C180.829559,114.812714 180.357956,114.794785 179.886368,114.776855 
	C179.886368,114.776855 179.656769,114.738640 179.422638,114.582413 
	C178.794601,114.249496 178.400681,114.072807 178.006775,113.896118 
	C178.006775,113.896118 178.045242,113.977043 177.937256,113.623215 
	C175.559326,112.516846 173.289383,111.764305 170.765564,110.837051 
	C170.045181,109.785400 169.578674,108.908447 169.062531,107.646332 
	C168.920578,106.487465 168.828293,105.713753 168.846161,104.614487 
	C170.301498,102.487701 171.646652,100.686470 173.312775,99.037109 
	C178.794434,104.077751 184.477448,104.148705 190.507538,101.018349 
	C192.582336,101.967087 194.657150,102.915825 196.772797,104.243591 
z"/>
<path fill="#FFFFF8" opacity="1.000000" stroke="none" 
	d="
M302.145020,195.958694 
	C302.432953,196.156235 302.720917,196.353775 303.166626,196.767792 
	C303.244568,211.272308 303.109924,225.560303 303.097565,239.848404 
	C303.077850,262.618134 303.139496,285.387970 303.165405,308.829498 
	C303.164032,309.501251 303.137543,309.937225 303.137543,309.937225 
	C302.959930,309.948761 302.782318,309.960297 302.084076,309.977509 
	C301.395660,310.001404 301.227875,310.019623 301.060089,310.037872 
	C301.060089,310.037872 301.041870,310.002991 301.100616,309.552734 
	C301.203705,271.431366 301.248047,233.760300 301.508392,196.075226 
	C301.724396,196.061203 302.145020,195.958694 302.145020,195.958694 
z"/>
<path fill="#08ABE6" opacity="1.000000" stroke="none" 
	d="
M96.014771,233.259003 
	C93.606941,235.123734 91.156517,236.548447 88.360062,238.030365 
	C87.739807,229.833557 87.465591,221.579575 87.101639,212.958801 
	C89.764565,212.784317 92.517235,212.976608 95.972168,213.217957 
	C95.972168,219.743256 95.972168,226.281113 96.014771,233.259003 
z"/>
<path fill="#F8C0A0" opacity="1.000000" stroke="none" 
	d="
M172.991821,98.885239 
	C171.646652,100.686470 170.301498,102.487701 168.615082,104.302017 
	C167.644348,100.867195 167.014877,97.419289 166.385422,93.971382 
	C166.113800,93.674957 165.842178,93.378532 165.178635,92.776474 
	C164.596954,92.247665 164.363052,92.089981 164.084976,91.997787 
	C162.766800,88.372620 161.927841,84.784630 165.383987,80.554886 
	C167.097519,83.157578 168.538879,85.346855 170.972046,89.042603 
	C171.638763,84.168472 172.142609,80.484993 172.759857,75.972527 
	C173.589127,77.283676 174.041183,77.998428 174.765442,78.910492 
	C175.042526,82.701508 175.047440,86.295204 175.030167,90.735825 
	C174.335922,94.016907 173.663879,96.451073 172.991821,98.885239 
z"/>
<path fill="#EDAE8B" opacity="1.000000" stroke="none" 
	d="
M166.156464,94.252960 
	C167.014877,97.419289 167.644348,100.867195 168.504913,104.627571 
	C168.828293,105.713753 168.920578,106.487465 168.988037,108.006287 
	C166.881195,113.165108 162.858612,113.004143 158.910492,113.012413 
	C154.127441,113.022430 154.179382,109.006401 153.054672,105.971199 
	C153.052612,105.533913 153.050552,105.096634 153.026993,104.332138 
	C160.708054,105.480812 163.107407,99.720612 166.156464,94.252960 
z"/>
<path fill="#475693" opacity="1.000000" stroke="none" 
	d="
M171.019440,111.011757 
	C173.289383,111.764305 175.559326,112.516846 177.975098,113.599258 
	C175.643539,114.887131 172.752274,115.321159 170.760590,116.894180 
	C162.292526,123.582275 156.872940,123.882095 148.156693,117.487572 
	C147.230255,116.807899 146.404755,115.990616 145.216553,115.097260 
	C146.674957,113.993111 148.449265,113.028862 150.756683,112.431549 
	C157.873138,117.325195 163.788116,116.789536 171.019440,111.011757 
z"/>
<path fill="#EEAF8D" opacity="1.000000" stroke="none" 
	d="
M173.312775,99.037109 
	C173.663879,96.451073 174.335922,94.016907 175.030334,91.181465 
	C182.341202,90.400742 188.291489,92.159096 190.378937,100.656021 
	C184.477448,104.148705 178.794434,104.077751 173.312775,99.037109 
z"/>
<path fill="#088BC5" opacity="1.000000" stroke="none" 
	d="
M301.292389,196.089233 
	C301.248047,233.760300 301.203705,271.431366 301.098511,309.570435 
	C298.639526,310.073761 296.241394,310.109070 293.400299,310.051636 
	C292.957367,309.958893 292.977264,309.479858 293.434631,309.240112 
	C295.806488,308.897247 297.720978,308.794128 300.092621,308.666412 
	C300.092621,270.338257 300.092621,232.580460 300.092621,194.822647 
	C300.092621,194.822647 300.552094,194.835571 300.803223,195.210052 
	C301.133698,195.752762 301.213043,195.921005 301.292389,196.089233 
z"/>
<path fill="#F78FC0" opacity="1.000000" stroke="none" 
	d="
M155.778900,280.310455 
	C155.996078,289.652283 156.011124,299.325287 156.033112,309.460327 
	C154.027420,310.117859 152.014755,310.313324 149.659637,310.609497 
	C150.734619,304.094086 152.170883,297.481873 153.561707,290.860138 
	C154.275299,287.462769 154.907669,284.048340 155.778900,280.310455 
z"/>
<path fill="#1A3D4E" opacity="1.000000" stroke="none" 
	d="
M185.927155,339.901184 
	C186.271484,337.310242 186.615799,334.719330 186.937134,331.720917 
	C188.789581,330.775360 190.644669,329.908783 192.546143,329.791016 
	C194.470551,329.671844 196.829559,329.765472 198.236526,330.800873 
	C199.006531,331.367584 198.201553,334.074432 197.450439,335.975464 
	C196.233688,336.863342 195.673309,337.591949 195.112930,338.320587 
	C195.086853,338.653931 194.918289,338.881958 193.998596,339.018982 
	C190.902344,339.322601 188.414749,339.611877 185.927155,339.901184 
z"/>
<path fill="#183C4E" opacity="1.000000" stroke="none" 
	d="
M147.829468,334.905762 
	C148.542389,331.955780 149.255295,329.005829 149.953064,325.657410 
	C151.347946,324.796661 152.785538,323.888641 154.161728,323.973724 
	C156.370193,324.110229 158.538040,324.903992 160.723053,325.420013 
	C159.742584,327.368256 158.818161,329.348267 157.744507,331.243744 
	C157.455353,331.754242 156.712952,332.007965 155.708221,332.722565 
	C154.843735,333.433380 154.449677,333.801178 154.055603,334.169006 
	C152.948059,334.796234 151.840530,335.423462 150.207718,335.804626 
	C149.064774,335.340973 148.447128,335.123352 147.829468,334.905762 
z"/>
<path fill="#183544" opacity="1.000000" stroke="none" 
	d="
M185.586517,339.977051 
	C188.414749,339.611877 190.902344,339.322601 193.777252,339.044586 
	C188.388733,342.484741 182.756897,346.194916 176.789688,349.250061 
	C172.324051,351.536407 167.759903,349.256226 166.292328,344.359070 
	C171.377197,347.485107 176.047745,345.940979 180.624680,342.966675 
	C182.151474,341.974487 183.704742,341.023041 185.586517,339.977051 
z"/>
<path fill="#E3DDE3" opacity="1.000000" stroke="none" 
	d="
M170.765564,110.837051 
	C163.788116,116.789536 157.873138,117.325195 151.120132,112.498650 
	C151.627380,110.376221 152.304291,108.553627 153.017944,106.351120 
	C154.179382,109.006401 154.127441,113.022430 158.910492,113.012413 
	C162.858612,113.004143 166.881195,113.165108 169.037689,108.391441 
	C169.578674,108.908447 170.045181,109.785400 170.765564,110.837051 
z"/>
<path fill="#233748" opacity="1.000000" stroke="none" 
	d="
M147.495880,334.975281 
	C148.447128,335.123352 149.064774,335.340973 149.868073,335.831848 
	C148.062119,337.500458 145.894547,338.702942 144.113190,340.328644 
	C139.496338,344.542145 134.563187,345.167664 129.908478,341.469055 
	C136.604752,341.932343 141.952057,338.684937 147.495880,334.975281 
z"/>
<path fill="#D8F2F8" opacity="1.000000" stroke="none" 
	d="
M237.367859,310.564148 
	C255.041092,310.258850 273.049561,310.187164 291.512390,310.224670 
	C291.356842,310.558533 290.746552,310.980347 290.137115,310.979156 
	C272.659058,310.944733 255.181076,310.867828 237.367859,310.564148 
z"/>
<path fill="#233748" opacity="1.000000" stroke="none" 
	d="
M128.086716,339.363403 
	C128.731705,339.523407 129.316849,340.024048 129.905548,340.848083 
	C129.281677,340.682343 128.654266,340.193207 128.086716,339.363403 
z"/>
<path fill="#FBE3DB" opacity="1.000000" stroke="none" 
	d="
M370.316650,147.008514 
	C370.427185,146.347260 370.794952,145.690720 371.459137,144.950989 
	C371.781677,145.375198 371.807770,145.882614 371.714294,146.753159 
	C371.254456,147.081955 370.914185,147.047592 370.316650,147.008514 
z"/>
<path fill="#D8F2F8" opacity="1.000000" stroke="none" 
	d="
M233.416138,211.062363 
	C233.542847,210.476807 233.909866,209.868195 234.524902,209.147629 
	C234.795181,209.492905 234.817444,209.950150 234.731812,210.734879 
	C234.623932,211.062378 234.139847,211.065506 234.139847,211.065506 
	C234.139847,211.065506 233.656448,211.039291 233.416138,211.062363 
z"/>
<path fill="#183544" opacity="1.000000" stroke="none" 
	d="
M195.431641,338.204590 
	C195.673309,337.591949 196.233688,336.863342 197.193756,336.136597 
	C196.979065,336.788513 196.364700,337.438538 195.431641,338.204590 
z"/>
<path fill="#233748" opacity="1.000000" stroke="none" 
	d="
M154.352341,334.104034 
	C154.449677,333.801178 154.843735,333.433380 155.523682,333.031738 
	C155.422745,333.344940 155.035919,333.692017 154.352341,334.104034 
z"/>
<path fill="#FF9271" opacity="1.000000" stroke="none" 
	d="
M437.924438,12.746435 
	C437.650635,12.942584 437.403412,12.800375 437.082947,12.403551 
	C437.282288,12.306871 437.596069,12.393250 437.924438,12.746435 
z"/>
<path fill="#D8F2F8" opacity="1.000000" stroke="none" 
	d="
M301.132324,310.213806 
	C301.227875,310.019623 301.395660,310.001404 301.817322,309.988464 
	C301.782318,310.125732 301.493439,310.257721 301.132324,310.213806 
z"/>
<path fill="#D8F2F8" opacity="1.000000" stroke="none" 
	d="
M234.991241,310.029175 
	C234.874146,310.073639 234.765442,310.089081 234.799469,310.061707 
	C234.942169,310.018890 234.999649,310.000122 234.991241,310.029175 
z"/>
<path fill="#F6F87B" opacity="1.000000" stroke="none" 
	d="
M303.343475,309.939453 
	C303.137543,309.937225 303.164032,309.501251 303.242218,309.297791 
	C303.535431,309.199463 303.703339,309.355347 303.890625,309.722687 
	C303.957123,309.883362 303.549408,309.941681 303.343475,309.939453 
z"/>
<path fill="#465592" opacity="1.000000" stroke="none" 
	d="
M129.671661,121.186333 
	C129.665634,121.385918 129.374771,121.603539 128.808960,121.878006 
	C128.818268,121.691353 129.102539,121.447861 129.671661,121.186333 
z"/>
<path fill="#465592" opacity="1.000000" stroke="none" 
	d="
M127.736282,122.119400 
	C127.868896,122.377823 127.682968,122.609833 127.232666,122.896255 
	C127.184219,122.717751 127.334023,122.431847 127.736282,122.119400 
z"/>
<path fill="#0094D1" opacity="1.000000" stroke="none" 
	d="
M299.870972,194.562439 
	C300.092621,232.580460 300.092621,270.338257 300.092621,308.666412 
	C297.720978,308.794128 295.806488,308.897247 293.445984,309.000641 
	C293.055511,270.166962 293.110992,231.332962 293.317200,191.998291 
	C295.528412,192.432465 297.588837,193.367340 299.870972,194.562439 
z"/>
<path fill="#0094D1" opacity="1.000000" stroke="none" 
	d="
M291.185730,190.423889 
	C291.397797,190.162521 291.690796,190.245300 292.029785,190.709930 
	C291.811951,190.921082 291.542236,190.813171 291.185730,190.423889 
z"/>
<path fill="#0094D1" opacity="1.000000" stroke="none" 
	d="
M292.180634,191.133926 
	C292.400299,190.968948 292.744965,191.061188 293.228821,191.385956 
	C293.013855,191.542709 292.659760,191.466934 292.180634,191.133926 
z"/>
<path fill="#455591" opacity="1.000000" stroke="none" 
	d="
M210.679199,154.050629 
	C207.116745,156.322952 202.983490,156.412521 198.734573,154.788528 
	C197.189072,154.197815 195.639771,153.564194 194.036453,153.187271 
	C189.004013,152.004150 186.156891,153.616104 185.722198,158.785263 
	C185.126801,165.865265 185.198303,173.005981 185.108841,180.122238 
	C185.050537,184.760254 185.214081,189.401062 185.276306,194.508453 
	C183.629990,187.513199 182.091156,180.024841 180.313049,172.593735 
	C178.325882,164.288986 178.718414,156.212570 182.038849,148.322479 
	C182.597519,146.994904 183.304001,145.729523 184.256790,143.797470 
	C192.189880,149.836029 200.213547,154.671722 210.679199,154.050629 
z"/>
<path fill="#FAFAFB" opacity="1.000000" stroke="none" 
	d="
M139.180145,172.535400 
	C133.203873,166.608978 127.378441,160.375290 121.210938,153.775574 
	C124.907722,150.614929 127.835236,147.702271 131.205673,145.453400 
	C132.379120,144.670425 134.647263,145.528091 136.718964,145.770584 
	C137.791977,154.679184 138.561478,163.453659 139.180145,172.535400 
z"/>
<path fill="#475693" opacity="1.000000" stroke="none" 
	d="
M180.027283,115.024101 
	C180.357956,114.794785 180.829559,114.812714 181.636444,114.958855 
	C181.370560,115.148499 180.769379,115.209923 180.027283,115.024101 
z"/>
<path fill="#475693" opacity="1.000000" stroke="none" 
	d="
M178.194244,114.164932 
	C178.400681,114.072807 178.794601,114.249496 179.381104,114.691116 
	C179.176361,114.781960 178.779053,114.607857 178.194244,114.164932 
z"/>
<path fill="#01A2E7" opacity="1.000000" stroke="none" 
	d="
M238.268646,195.870789 
	C237.306488,194.698196 236.085602,193.403107 236.078049,192.100998 
	C235.958359,171.436279 236.059082,150.770218 235.930099,130.105606 
	C235.908798,126.690041 237.221069,125.916252 240.347488,125.938866 
	C256.512329,126.055801 272.678711,126.038277 288.843964,125.951584 
	C291.680115,125.936378 293.080841,126.558289 293.055603,129.802048 
	C292.929962,145.966766 293.034973,162.133240 292.925568,178.298203 
	C292.917114,179.544937 291.879730,180.784698 290.885620,182.156631 
	C283.249390,178.427567 275.005432,176.501144 269.267822,169.919220 
	C266.877075,167.176651 262.364899,168.385696 260.167023,171.392776 
	C257.568604,174.947861 254.766266,178.353897 251.450775,182.046967 
	C250.651474,182.633057 250.453751,182.996735 250.256042,183.360413 
	C250.256042,183.360413 250.242844,183.207520 250.004059,183.271484 
	C249.609756,183.680923 249.454239,184.026398 249.298706,184.371872 
	C249.298706,184.371872 249.238022,184.242020 249.001617,184.288727 
	C248.609711,184.680893 248.454178,185.026367 248.298645,185.371841 
	C248.298660,185.371841 248.259689,185.223312 248.024261,185.267563 
	C247.512314,185.810486 247.235809,186.309174 246.959290,186.807861 
	C246.432266,187.440323 245.905228,188.072800 244.800735,188.885284 
	C243.804977,189.662445 243.386688,190.259598 242.968399,190.856750 
	C241.503738,192.486176 240.039078,194.115601 238.268646,195.870789 
z"/>
<path fill="#0595D2" opacity="1.000000" stroke="none" 
	d="
M243.222290,190.752701 
	C243.386688,190.259598 243.804977,189.662445 244.515060,189.012909 
	C244.363281,189.523209 243.919739,190.085922 243.222290,190.752701 
z"/>
<path fill="#0595D2" opacity="1.000000" stroke="none" 
	d="
M247.219635,186.716339 
	C247.235809,186.309174 247.512314,185.810486 248.093597,185.300537 
	C248.092224,185.734467 247.786102,186.179642 247.219635,186.716339 
z"/>
<path fill="#BADEEB" opacity="1.000000" stroke="none" 
	d="
M301.508392,196.075226 
	C301.213043,195.921005 301.133698,195.752762 301.010620,195.309082 
	C301.268372,195.192978 301.569855,195.352341 302.008179,195.735199 
	C302.145020,195.958694 301.724396,196.061203 301.508392,196.075226 
z"/>
<path fill="#0595D2" opacity="1.000000" stroke="none" 
	d="
M250.539749,183.246719 
	C250.453751,182.996735 250.651474,182.633057 251.167999,182.193787 
	C251.265686,182.456482 251.044571,182.794754 250.539749,183.246719 
z"/>
<path fill="#0595D2" opacity="1.000000" stroke="none" 
	d="
M249.555328,184.280243 
	C249.454239,184.026398 249.609756,183.680923 250.069733,183.311188 
	C250.186768,183.587494 249.999359,183.888062 249.555328,184.280243 
z"/>
<path fill="#0595D2" opacity="1.000000" stroke="none" 
	d="
M248.555298,185.280212 
	C248.454178,185.026367 248.609711,184.680893 249.069702,184.311172 
	C249.186752,184.587463 248.999344,184.888031 248.555298,185.280212 
z"/>
<path fill="#96FC89" opacity="1.000000" stroke="none" 
	d="
M232.426071,201.989990 
	C232.191345,201.795837 232.279633,201.504135 232.682114,201.109863 
	C232.941040,201.306900 232.858627,201.601944 232.426071,201.989990 
z"/>
<path fill="#EDAE8B" opacity="1.000000" stroke="none" 
	d="
M164.115448,92.249054 
	C164.363052,92.089981 164.596954,92.247665 164.893066,92.655807 
	C164.714935,92.727287 164.430435,92.613800 164.115448,92.249054 
z"/>
</svg>